<svg width="600" height="500" xmlns="http://www.w3.org/2000/svg" xmlns:svg="http://www.w3.org/2000/svg" xmlns:xlink="http://www.w3.org/1999/xlink">
 <!-- Created with SVG-edit - https://github.com/SVG-Edit/svgedit-->
 <defs>
  <symbol id="svg_1" xmlns="http://www.w3.org/2000/svg" viewBox="0 0 120 120">
   <path fill="#FFA8BE" d="m111.711,79.054c-0.028,-3.6188 -1.457,-6.8726 -3.721,-9.3464c2.3,-2.5927 3.598,-6.61551 3.571,-10.1061c-0.03899,-5.0013 -2.702,-9.345 -6.654,-11.8059c1.144,-2.055 1.841,-4.3901 1.822,-6.9073c-0.049,-6.2763 -4.20399,-12.0194 -9.89629,-13.9605c-0.0072,-0.0691 2.0424,-6.2611 -3.1064,-11.3365c-1.7831,-1.7533 -4.1268,-2.9423 -6.73331,-3.2737c-0.81049,-2.2979 -2.2039,-4.44098 -3.99889,-6.1566c-2.5034,-2.3925 -5.7893,-3.9518 -9.3778,-3.92391c-1.72881,0.01336 -3.3811,0.37453 -4.90601,1.0111c-5.32619,2.22328 -9.0886,7.82461 -9.0419,13.86281c-0.0319,-4.1147 -1.8293,-7.99969 -4.6671,-10.73484c-1.8418,1.76742 -3.2569,3.98934 -4.0538,6.36444c-2.6011,0.3717 -4.9261,1.5968 -6.6818,3.3776c-4.991,5.0744 -2.9311,11.3594 -2.9309,11.3831c-5.661,2.029 -9.7272,7.8356 -9.6787,14.112c0.0195,2.5172 0.7523,4.8412 1.9282,6.8782c-3.9134,2.5216 -6.5093,6.9061 -6.4706,11.9074c0.0269,3.4941 1.3891,7.4948 3.727,10.0495c-2.2261,2.5088 -3.6047,5.7844 -3.5766,9.4029c0.0336,4.3474 2.079,8.1708 5.1997,10.72739c-0.2473,1.06361 -0.4123,2.1571 -0.4034,3.2986c0.06,7.7667 6.4092,14.71671 14.1762,14.6567c0.532,-0.005 1.0375,-0.10699 1.5527,-0.169c1.2096,2.554 3.052,4.748 5.3236,6.375c4.3821,-3.182 7.2445,-8.499 7.2007,-14.194c0.0509,6.584 3.9785,12.60101 9.5979,15.373c2.1131,1.042 4.4639,1.628 6.9401,1.609c3.4975,-0.027 6.7195,-1.153 9.3572,-3.044c2.3378,-1.677 4.2168,-3.954 5.4211,-6.603c0.51611,0.055 1.023,0.149 1.555,0.145c7.76711,-0.06 14.0081,-7.106 13.9481,-14.8734c-0.009,-1.1414 -0.191,-2.2322 -0.455,-3.2918c3.081,-2.6049 5.067,-6.4594 5.033,-10.8068z"/>
   <path fill="#231F20" d="m71.7188,24.1406c1.29369,0 2.3437,-1.05 2.3437,-2.3437c0,-1.2938 -1.05,-2.3438 -2.3437,-2.3438c-1.2938,0 -2.3438,1.05 -2.3438,2.3438c0,1.2937 1.05,2.3437 2.3438,2.3437z"/>
   <path fill="#231F20" d="m48.2812,24.1406c1.2938,0 2.3438,-1.05 2.3438,-2.3437c0,-1.2938 -1.05,-2.3438 -2.3438,-2.3438c-1.2937,0 -2.3437,1.05 -2.3437,2.3438c0,1.2937 1.05,2.3437 2.3437,2.3437z"/>
   <path fill="#231F20" d="m6.09375,79.4531c0,4.3631 1.76906,8.5196 4.89825,11.6058c-1.6088,9.7251 6.1467,19.5661 16.1955,19.5661c0.0727,0 0.1441,-0.001 0.2142,-0.003c3.3317,5.747 9.5159,9.378 16.1921,9.378c6.9581,0 13.1756,-4.177 16.4062,-10.194c3.2306,6.017 9.4481,10.194 16.4062,10.194c6.6762,0 12.8604,-3.631 16.1921,-9.378c0.0703,0.002 0.1415,0.003 0.2142,0.003c8.8935,0 16.4065,-7.835 16.4065,-17.1094c0,-0.7896 -0.07,-1.6017 -0.211,-2.4567c3.129,-3.0862 4.89799,-7.2424 4.89799,-11.6058c0,-3.3647 -1.06,-6.6396 -3.018,-9.4026c2.012,-3.0193 3.018,-6.7864 3.018,-10.0505c0,-4.9209 -2.186,-9.4929 -5.937,-12.5932c0.83,-1.9838 1.25,-4.047 1.25,-6.1568c0,-6.5285 -3.81001,-12.6101 -9.4749,-15.45c0.85989,-7.1283 -3.7854,-13.6622 -10.6687,-15.3288c-2.6942,-6.22808 -8.6906,-10.4712 -15.0129,-10.4712c-5.8852,0 -11.1635,3.43266 -14.0625,8.44125c-2.8992,-5.00859 -8.1776,-8.44125 -14.0625,-8.44125c-6.3227,0 -12.3192,4.24313 -15.0129,10.4714c-6.9246,1.6772 -11.5258,8.2437 -10.6687,15.3286c-5.6644,2.8397 -9.4747,8.9215 -9.4747,15.45c0,2.1098 0.4196,4.173 1.2497,6.1568c-3.75113,3.1005 -5.93715,7.6723 -5.93715,12.5932c0,3.2812 1.01484,7.0434 3.01805,10.0502c-1.9575,2.7633 -3.01805,6.0382 -3.01805,9.4029zm67.96875,-74.7656c4.0444,0 7.4813,2.49 9.5482,5.558c-2.9306,0.4514 -5.6348,1.8136 -7.7733,3.9494c-0.9159,0.9148 -0.9169,2.3986 -0.00211,3.3146c0.9148,0.9159 2.3991,0.9166 3.31451,0.0018c1.77309,-1.7704 4.1279,-2.7457 6.63139,-2.7457c5.1547,0 9.375,4.1689 9.375,9.375c0,0.0619 -0.00459,0.1221 -0.0058,0.1838c-0.7727,-0.1203 -1.5532,-0.1838 -2.3379,-0.1838c-8.8931,0 -16.4063,7.8352 -16.4063,17.1094c0,1.2945 1.04961,2.3438 2.3438,2.3438c1.2942,0 2.3438,-1.0493 2.3438,-2.3438c0,-6.6171 5.4759,-12.4219 11.7187,-12.4219c6.5583,0 11.7185,6.0931 11.7185,12.4219c0,1.9695 -0.528,3.8998 -1.57,5.737c-0.616,1.0873 -0.271,2.4671 0.785,3.136c3.42699,2.171 5.473,5.8633 5.473,9.877c0,6.6401 -5.377,12.4219 -11.719,12.4219c-1.2942,0 -2.3438,1.0493 -2.3438,2.3437c0,1.29449 1.04961,2.3438 2.3438,2.3438c3.691,0 7.188,-1.3835 9.999,-3.6865c1.119,1.8241 1.72,3.9044 1.72,6.0302c0,3.4385 -1.557,6.7064 -4.272,8.9656c-0.686,0.5709 -0.989,1.4819 -0.78,2.3496c0.249,1.0319 0.364,1.905 0.364,2.7471c0,7.2746 -6.5798,13.15459 -12.5123,12.3436c-0.1648,-0.023 -0.3298,-0.045 -0.4955,-0.064c-1.0048,-0.113 -1.9659,0.427 -2.3904,1.342c-2.30479,4.967 -7.3005,8.175 -12.7266,8.175c-7.6225,0 -14.0624,-6.76099 -14.0624,-14.765c0,-7.7542 6.3084,-14.0626 14.0624,-14.0626c1.2943,0 2.3438,-1.0493 2.3438,-2.3438c0,-1.2944 -1.0495,-2.3437 -2.3438,-2.3437c-5.5961,0 -10.62389,2.4675 -14.0624,6.3677l0,-44.5708c0,-2.5847 2.1028,-4.6876 4.6874,-4.6876c1.2943,0 2.3438,-1.0492 2.3438,-2.3437c0,-1.2945 -1.0495,-2.3437 -2.3438,-2.3437c-1.70689,0 -3.3074,0.4607 -4.6874,1.2611l0,-18.3705c0,-6.6174 5.4759,-12.4219 11.7187,-12.4219zm-57.8081,45.4355c1.0558,-0.6689 1.4011,-2.0487 0.7844,-3.136c-1.0418,-1.8372 -1.57,-3.7675 -1.57,-5.737c0,-6.3258 5.1567,-12.4219 11.7187,-12.4219c6.2428,0 11.7187,5.8048 11.7187,12.4219c0,1.2945 1.0493,2.3438 2.3438,2.3438c1.2945,0 2.3438,-1.0493 2.3438,-2.3438c0,-9.2742 -7.5132,-17.1094 -16.4063,-17.1094c-0.7847,0 -1.5652,0.0635 -2.3379,0.1838c-0.0012,-0.0617 -0.0058,-0.1217 -0.0058,-0.1838c0,-5.2305 4.2461,-9.375 9.375,-9.375c2.5035,0 4.8585,0.9753 6.6309,2.7457c0.9157,0.9148 2.3995,0.9139 3.3145,-0.0016c0.9148,-0.9159 0.9141,-2.3998 -0.0016,-3.3145c-2.1382,-2.1359 -4.8427,-3.4981 -7.7735,-3.9495c2.0669,-3.0682 5.504,-5.5582 9.5484,-5.5582c6.2428,0 11.7187,5.8045 11.7187,12.4219l0,18.3705c-1.38,-0.8004 -2.9805,-1.2611 -4.6874,-1.2611c-1.2945,0 -2.3438,1.0492 -2.3438,2.3437c0,1.2945 1.0493,2.3437 2.3438,2.3437c2.5846,0 4.6874,2.1029 4.6874,4.6876l0,44.5708c-3.4385,-3.9002 -8.4663,-6.3677 -14.0624,-6.3677c-1.2945,0 -2.3438,1.0493 -2.3438,2.3437c0,1.29449 1.0493,2.3438 2.3438,2.3438c7.754,0 14.0624,6.3084 14.0624,14.0626c0,8.00401 -6.4399,14.765 -14.0624,14.765c-5.4263,0 -10.4215,-3.208 -12.7264,-8.175c-0.4249,-0.915 -1.3872,-1.454 -2.3906,-1.342c-0.1657,0.019 -0.3305,0.041 -0.4952,0.064c-6.6703,0.912 -14.1821,-6.641 -12.1486,-15.0907c0.2088,-0.8679 -0.0935,-1.7787 -0.7796,-2.3496c-2.715,-2.2592 -4.2722,-5.5271 -4.2722,-8.9656c0,-2.126 0.6012,-4.2065 1.7199,-6.0309c2.8111,2.30389 6.3077,3.68719 9.9989,3.68719c1.2945,0 2.3438,-1.0493 2.3438,-2.3438c0,-1.2944 -1.0493,-2.3437 -2.3438,-2.3437c-6.3607,0 -11.7188,-5.8055 -11.7188,-12.4219c0,-4.0137 2.0459,-7.706 5.4732,-9.877z"/>
   <path fill="#231F20" d="m38.5781,57.4352c-0.9023,2.8425 -3.5658,4.9086 -6.7031,4.9086c-1.2945,0 -2.3438,1.0492 -2.3438,2.3437c0,1.2945 1.0493,2.3437 2.3438,2.3437c5.7087,0 10.4742,-4.1039 11.5083,-9.516c3.2594,-0.4264 6.3272,-1.8211 8.8043,-4.0372c0.9647,-0.8629 1.0472,-2.3446 0.1842,-3.3093c-0.863,-0.9647 -2.3445,-1.0472 -3.3094,-0.1842c-7.5159,6.723 -19.5312,1.35 -19.5312,-8.7345c0,-1.2945 -1.0492,-2.3438 -2.3437,-2.3438c-1.2945,0 -2.3437,1.0493 -2.3437,2.3438c0,8.1363 5.9547,14.9051 13.7343,16.1852z"/>
   <path fill="#231F20" d="m27.1875,91.1719c-1.2945,0 -2.3437,1.0493 -2.3437,2.3437c0,1.29449 1.0492,2.3438 2.3437,2.3438c6.2428,0 11.7187,5.8046 11.7187,12.4216c0,1.295 1.0493,2.344 2.3438,2.344c1.2945,0 2.3438,-1.049 2.3438,-2.344c0,-9.27399 -7.5132,-17.1091 -16.4063,-17.1091z"/>
   <path fill="#231F20" d="m45.9375,72.4219c-7.942,0 -14.7609,4.3558 -18.3516,10.6893c-0.6382,1.1262 -0.2428,2.5566 0.8832,3.1948c1.1261,0.6382 2.5563,0.2431 3.1947,-0.8831c2.7973,-4.935 8.1049,-8.3135 14.2737,-8.3135c1.2945,0 2.3437,-1.0493 2.3437,-2.3438c0,-1.2944 -1.0492,-2.3437 -2.3437,-2.3437z"/>
   <path fill="#231F20" d="m67.6282,50.1687c-0.8632,0.9647 -0.78049,2.4464 0.1842,3.3093c2.4771,2.2161 5.5451,3.6108 8.8043,4.0372c1.0341,5.4121 5.7996,9.516 11.5083,9.516c1.2942,0 2.3437,-1.04919 2.3437,-2.3437c0,-1.2945 -1.0495,-2.3437 -2.3437,-2.3437c-3.1374,0 -5.8008,-2.0661 -6.7031,-4.9086c7.7796,-1.2801 13.7343,-8.0489 13.7343,-16.1852c0,-1.2945 -1.0495,-2.3438 -2.3437,-2.3438c-1.2942,0 -2.3438,1.0493 -2.3438,2.3438c0,6.4617 -5.257,11.7188 -11.7187,11.7188c-2.8866,0 -5.6609,-1.0599 -7.8124,-2.9843c-0.9645,-0.863 -2.4464,-0.7808 -3.3094,0.1842z"/>
   <path fill="#231F20" d="m92.8125,91.1719c-8.8931,0 -16.4063,7.83511 -16.4063,17.1091c0,1.295 1.04961,2.344 2.3438,2.344c1.2942,0 2.3438,-1.049 2.3438,-2.344c0,-6.617 5.4759,-12.4216 11.7187,-12.4216c1.2942,0 2.3437,-1.0493 2.3437,-2.3438c0,-1.2944 -1.0495,-2.3437 -2.3437,-2.3437z"/>
   <path fill="#231F20" d="m88.3357,85.4229c0.6391,1.1276 2.0705,1.52081 3.1948,0.8833c1.1261,-0.6382 1.5215,-2.0685 0.8836,-3.19469c-3.5818,-6.3185 -10.3913,-10.68961 -18.3516,-10.68961c-1.2942,0 -2.3437,1.0493 -2.3437,2.3437c0,1.29449 1.0495,2.3438 2.3437,2.3438c6.1643,0 11.4759,3.3776 14.2732,8.3135z"/>
  </symbol>
  <symbol id="svg_4" xmlns="http://www.w3.org/2000/svg" viewBox="0 0 120 120">
   <circle fill="#eaeab4" r="60" cy="60" cx="60"/>
  </symbol>
 </defs>
 <g class="layer">
  <title>Layer 1</title>
  <g id="svg_3"/>
  <use x="-0.34129" y="12.30488" transform="matrix(1.0324, 0, 0, 0.981051, -12.5509, -4.9291)" xlink:href="#svg_4" id="svg_5"/>
  <use x="99.31429" y="64.81402" transform="matrix(0.768406, 0, 0, 0.781061, -6.07244, -3.42439)" xlink:href="#svg_1" id="svg_2"/>
  <g id="svg_6"/>
  <line id="svg_11" y2="410" x2="701.20001" y1="410" x1="704.20001" stroke-linecap="null" stroke-linejoin="null" stroke-dasharray="null" stroke-width="5" stroke="#000000" fill="none"/>
 </g>
</svg>
